<svg xmlns="http://www.w3.org/2000/svg" xmlns:xlink="http://www.w3.org/1999/xlink" width="21" height="214"><symbol id="sprite-close" viewBox="0 0 13 13"><path fill-rule="evenodd" fill="#465993" d="M8.372 6l4.315 4.314a.995.995 0 1 1-1.408 1.408L6.964 7.408l-4.31 4.31a.995.995 0 1 1-1.408-1.408L5.556 6 1.258 1.701A.995.995 0 1 1 2.666.293l4.298 4.299L11.267.289a.995.995 0 1 1 1.408 1.408L8.372 6z"/></symbol><use xlink:href="#sprite-close" width="13" height="13"/><symbol id="sprite-down" viewBox="0 0 10 6"><path fill-rule="evenodd" fill="#465993" d="M9.596 1.803L5.703 5.696a.984.984 0 0 1-.778.277.984.984 0 0 1-.746-.284L.286 1.797A.995.995 0 1 1 1.694.389l3.25 3.25L8.188.395a.995.995 0 1 1 1.408 1.408z"/></symbol><use xlink:href="#sprite-down" y="15" width="10" height="6"/><symbol id="sprite-download" viewBox="0 0 13 17"><path fill-rule="evenodd" fill="#465993" d="M11.926 16.022h-9.99a.996.996 0 0 1 0-1.991h9.99a.995.995 0 1 1 0 1.991zm-4.223-4.326c-.015.014-.034.019-.05.033a.989.989 0 0 1-.711.302h-.009a.982.982 0 0 1-.724-.322c-.01-.008-.022-.011-.03-.02L2.286 7.797a.995.995 0 1 1 1.408-1.408l2.243 2.243V1.058c0-.55.446-.996.996-.996h.009c.55 0 .995.446.995.996v7.587l2.251-2.25a.995.995 0 1 1 1.408 1.408l-3.893 3.893z"/></symbol><use xlink:href="#sprite-download" y="23" width="13" height="17"/><symbol id="sprite-facebook" viewBox="0 0 8 15"><path fill-rule="evenodd" fill="#465993" d="M5.744.291c-.97 0-1.746.288-2.33.862-.583.575-.874 1.384-.874 2.427v1.833H.395v2.49H2.54v6.383h2.573V7.903H7.25l.328-2.49H5.113V3.824c0-.404.084-.707.253-.909.168-.202.493-.302.975-.302h1.321V.392C7.208.325 6.568.291 5.744.291z"/></symbol><use xlink:href="#sprite-facebook" y="42" width="8" height="15"/><symbol id="sprite-heart" viewBox="0 0 21 20"><path fill-rule="evenodd" stroke="#465993" stroke-width="2" stroke-linecap="round" stroke-linejoin="round" fill="none" d="M10.393 15.914l5.562-5.357C17.318 9.194 18 7.855 18 6.539c0-1.309-.378-2.333-1.134-3.071-.756-.738-1.801-1.107-3.134-1.107-.369 0-.745.064-1.129.192a4.598 4.598 0 0 0-1.072.518c-.33.217-.614.421-.853.611A8.163 8.163 0 0 0 10 4.29a8.177 8.177 0 0 0-.679-.608c-.238-.19-.522-.394-.852-.611a4.598 4.598 0 0 0-1.072-.518 3.556 3.556 0 0 0-1.129-.192c-1.333 0-2.378.369-3.134 1.107C2.378 4.206 2 5.23 2 6.539c0 .399.07.81.21 1.233.14.422.299.782.478 1.08.178.298.381.588.607.87.226.283.391.478.495.585.104.107.186.185.246.232l5.571 5.375a.535.535 0 0 0 .393.161.535.535 0 0 0 .393-.161z"/></symbol><use xlink:href="#sprite-heart" y="59" width="21" height="20"/><symbol id="sprite-instagram" viewBox="0 0 15 15"><path fill-rule="evenodd" fill="#465993" d="M12.898 12.45a.545.545 0 0 1-.392.159H2.758a.537.537 0 0 1-.396-.159.538.538 0 0 1-.16-.397V6.144h1.286a3.912 3.912 0 0 0-.183 1.195c0 1.167.426 2.162 1.277 2.986.851.824 1.875 1.236 3.073 1.236.79 0 1.519-.189 2.188-.566a4.255 4.255 0 0 0 1.587-1.536 4.042 4.042 0 0 0 .583-2.12c0-.414-.061-.812-.182-1.195h1.231v5.909c0 .158-.055.29-.164.397zM7.655 9.919a2.754 2.754 0 0 1-1.984-.798 2.582 2.582 0 0 1-.825-1.928c0-.754.275-1.397.825-1.929a2.758 2.758 0 0 1 1.984-.798c.778 0 1.442.267 1.992.798.55.532.825 1.175.825 1.929s-.275 1.397-.825 1.928a2.761 2.761 0 0 1-1.992.798zm5.225-5.562a.607.607 0 0 1-.447.182h-1.587a.607.607 0 0 1-.447-.182.608.608 0 0 1-.182-.447V2.406c0-.17.061-.318.182-.442a.6.6 0 0 1 .447-.187h1.587a.6.6 0 0 1 .447.187.613.613 0 0 1 .182.442V3.91a.608.608 0 0 1-.182.447zM14.12.746a1.732 1.732 0 0 0-1.268-.529H2.439a1.73 1.73 0 0 0-1.267.529 1.728 1.728 0 0 0-.529 1.268v10.413c0 .492.176.915.529 1.267.352.353.775.529 1.267.529h10.413c.493 0 .915-.176 1.268-.529a1.73 1.73 0 0 0 .528-1.267V2.014c0-.493-.176-.915-.528-1.268z"/></symbol><use xlink:href="#sprite-instagram" y="81" width="15" height="15"/><symbol id="sprite-pause" viewBox="0 0 9 17"><path fill-rule="evenodd" fill="#465993" d="M7.942 16.031h-.009a.996.996 0 0 1-.996-.995V1.058c0-.55.446-.996.996-.996h.009c.55 0 .995.446.995.996v13.978a.995.995 0 0 1-.995.995zm-6 0h-.009a.996.996 0 0 1-.996-.995V1.058c0-.55.446-.996.996-.996h.009c.55 0 .995.446.995.996v13.978a.995.995 0 0 1-.995.995z"/></symbol><use xlink:href="#sprite-pause" y="98" width="9" height="17"/><symbol id="sprite-play" viewBox="0 0 13 17"><path fill-rule="evenodd" fill="#465993" d="M12.863 8.06a.984.984 0 0 1-.283.746l-9.893 6.892c-.007.008-.017.01-.024.017a.99.99 0 0 1-.721.316h-.009a.995.995 0 0 1-.996-.995V1.058c0-.55.446-.996.996-.996h.009c.277 0 .527.115.707.297.014.013.032.017.045.03l9.892 6.893a.974.974 0 0 1 .277.778zm-9.926 5.075l7.311-5.094-7.311-5.094v10.188z"/></symbol><use xlink:href="#sprite-play" y="117" width="13" height="17"/><symbol id="sprite-tumblr" viewBox="0 0 9 15"><path fill-rule="evenodd" fill="#465993" d="M6.381 11.719a1.576 1.576 0 0 1-.687-.118.894.894 0 0 1-.417-.349 1.636 1.636 0 0 1-.244-.915V5.972h2.814V3.849H5.041V.276H2.985a.088.088 0 0 0-.063.029.133.133 0 0 0-.038.072 6.6 6.6 0 0 1-.127.746 4.9 4.9 0 0 1-.286.834 4.42 4.42 0 0 1-.489.859 3.757 3.757 0 0 1-.767.759c-.32.244-.682.44-1.087.585v1.812h1.416v4.584a3.635 3.635 0 0 0 .607 2.006c.219.337.485.635.8.893.315.259.715.466 1.201.624.486.157 1.021.23 1.605.219.5-.006.997-.096 1.492-.27.494-.174.806-.359.935-.556l-.674-1.997c-.315.152-.691.233-1.129.244z"/></symbol><use xlink:href="#sprite-tumblr" y="136" width="9" height="15"/><symbol id="sprite-volume-base" viewBox="0 0 12 16"><path fill-rule="evenodd" fill="#465993" d="M11.969 1.003v13.97l-.002.007a.986.986 0 0 1-.286.73.995.995 0 0 1-1.408 0l-5.546-3.719H1.983a.993.993 0 0 1-.92-.62.98.98 0 0 1-.085-.398v-5.99c0-.55.445-.996.995-.996.023 0 .042.011.064.013h2.699l5.52-3.702a.987.987 0 0 1 1.637.312.99.99 0 0 1 .076.393zM5.618 5.76c-.073.058-.144.117-.231.154a.993.993 0 0 1-.419.077H2.969V10h2.035c.28 0 .53.116.711.302l4.262 2.858V2.837L5.701 5.705c-.024.025-.057.034-.083.055z"/></symbol><use xlink:href="#sprite-volume-base" y="153" width="12" height="16"/><symbol id="sprite-volume-high" viewBox="0 0 18 18"><path fill-rule="evenodd" fill="#465993" d="M18 9c0 3.236-1.722 6.05-4.286 7.635a1 1 0 0 1-.407.241c-.094.051-.18.114-.276.162v-.107c-.011.001-.02.006-.031.006a1 1 0 1 1 0-2c.011 0 .02.006.031.007v-.236C14.822 13.44 16 11.361 16 9s-1.178-4.44-2.969-5.708v-.324c-.053.009-.101.032-.156.032a1 1 0 0 1 0-2c.055 0 .103.023.156.032v-.07c.063.031.118.073.18.106a.995.995 0 0 1 .303.179C16.188 2.807 18 5.681 18 9z"/></symbol><use xlink:href="#sprite-volume-high" y="171" width="18" height="18"/><symbol id="sprite-volume-low" viewBox="0 0 12 12"><path fill-rule="evenodd" fill="#465993" d="M9.031 10.052v-.115a.979.979 0 0 1-.312.063 1 1 0 1 1 0-2c.111 0 .213.03.312.063V3.937A.979.979 0 0 1 8.719 4a1 1 0 1 1 0-2c.111 0 .213.03.312.063V2.01c.031.024.059.052.089.077a.99.99 0 0 1 .425.383 5.028 5.028 0 0 1 1.486 3.561c0 1.644-.791 3.09-2 4.021z"/></symbol><use xlink:href="#sprite-volume-low" y="191" width="12" height="12"/><symbol id="sprite-volume-mute" viewBox="0 0 8 9"><path fill-rule="evenodd" fill="#465993" d="M5.772 4.484l1.91 1.922a1 1 0 0 1 0 1.408.986.986 0 0 1-1.4 0l-1.91-1.922-1.9 1.913a.986.986 0 0 1-1.4 0 1 1 0 0 1 0-1.408l1.901-1.913-1.894-1.906a1 1 0 0 1 0-1.408.986.986 0 0 1 1.399 0l1.894 1.906 1.904-1.915a.984.984 0 0 1 1.399 0 1 1 0 0 1 0 1.408L5.772 4.484z"/></symbol><use xlink:href="#sprite-volume-mute" y="205" width="8" height="9"/></svg>