<svg width="37" height="34" viewBox="0 0 37 34" xmlns="http://www.w3.org/2000/svg"><title>Group 6</title><g id="Page-1" fill="none" fill-rule="evenodd"><g id="Главная" transform="translate(-72 -1276)" fill-rule="nonzero"><g id="Group-6" transform="translate(72 1276)"><path d="M36.38 0H.62A.613.613 0 0 0 0 .605v20.517c0 .335.277.606.62.606h8.127c.342 0 .62-.273.62-.606a.613.613 0 0 0-.62-.605H1.239V1.212H35.76v19.303h-7.508a.613.613 0 0 0-.62.606c0 .333.278.605.62.605h8.128a.613.613 0 0 0 .619-.605V.607A.614.614 0 0 0 36.38 0z" id="Shape" fill="#FFF"/><path d="M5.482 6.036h5.3a.604.604 0 0 0 0-1.208h-5.3a.604.604 0 0 0 0 1.208zm.017 2.816h9.332c.342 0 .62-.272.62-.603a.613.613 0 0 0-.62-.604H5.499a.613.613 0 0 0-.62.604c0 .331.277.603.62.603z" id="Shape" fill="#FFF"/><path d="M25.497 16.373V14.66c0-1.358-1.12-2.461-2.498-2.461h-1.726l-1.012-1.006a2.484 2.484 0 0 0-1.766-.73h-.022a2.422 2.422 0 0 0-1.729.73L15.731 12.2h-1.726c-1.376 0-2.498 1.105-2.498 2.461v1.715l-1.014 1.008a2.453 2.453 0 0 0-.735 1.749c0 .657.261 1.277.735 1.748l1.014 1.007v1.715c0 .882.488 1.661 1.24 2.1l-2.027 4.186a.605.605 0 0 0 .048.61.603.603 0 0 0 .557.262l2.846-.24 1.67 2.59c.113.177.3.313.522.282a.614.614 0 0 0 .518-.293l1.621-2.645 1.619 2.644c.11.18.305.29.517.293h.006a.613.613 0 0 0 .517-.283l1.67-2.59 2.846.24a.606.606 0 0 0 .557-.262.602.602 0 0 0 .047-.61l-2.025-4.18c.741-.438 1.238-1.23 1.238-2.106v-1.714l1.007-1.001a2.395 2.395 0 0 0 .74-1.727 2.456 2.456 0 0 0-.734-1.775l-1.01-1.01zm-2.929 12.898a.62.62 0 0 0-.569.28l-1.34 2.077-1.632-2.665a.616.616 0 0 0-1.05 0l-1.632 2.665-1.34-2.077a.616.616 0 0 0-.569-.28l-2.143.182 1.827-3.775a8.88 8.88 0 0 1 .774-.038c.322 0 .43.03.43.03.179.085.717.635 1.199 1.232 1.051 1.048 2.858 1.102 4.006-.05.436-.543.974-1.097 1.142-1.177.003-.001.105-.033.442-.033.266 0 .556.02.771.038l1.828 3.774-2.144-.183zm3.075-9.256l-1.192 1.186a.61.61 0 0 0-.18.431V23.6c0 .428-.236.821-.595 1.046a.594.594 0 0 0-.313-.145s-.67-.081-1.25-.081c-.409 0-.696.038-.901.122-.542.223-1.33 1.156-1.597 1.495-.591.587-1.682.535-2.178.052-.313-.392-1.101-1.327-1.644-1.549-.206-.084-.491-.122-.9-.122-.58 0-1.251.081-1.251.081a.608.608 0 0 0-.309.14 1.224 1.224 0 0 1-.598-1.04v-1.968a.61.61 0 0 0-.18-.432l-1.192-1.184a1.245 1.245 0 0 1-.376-.886c0-.33.134-.644.375-.884l1.193-1.187a.61.61 0 0 0 .18-.431v-1.968c0-.672.581-1.24 1.27-1.24h1.981c.163 0 .32-.066.434-.18l1.2-1.192a1.21 1.21 0 0 1 .864-.366c.37-.002.666.13.908.373l1.192 1.186a.623.623 0 0 0 .435.178h1.98c.702 0 1.272.556 1.272 1.24v1.969c0 .161.065.317.18.43l1.193 1.188c.246.243.378.563.376.904-.004.33-.135.634-.377.866z" id="Shape" fill="#63B65A"/><path d="M18.703 15.692c-2.018 0-3.659 1.625-3.659 3.622 0 1.996 1.64 3.62 3.66 3.62 2.018 0 3.659-1.624 3.659-3.62 0-1.997-1.641-3.622-3.66-3.622zm0 6.002c-1.328 0-2.408-1.067-2.408-2.38 0-1.314 1.08-2.381 2.408-2.381 1.328 0 2.409 1.067 2.409 2.38 0 1.314-1.08 2.381-2.409 2.381z" id="Shape" fill="#63B65A"/></g></g></g></svg>