<svg width="70" height="64" viewBox="0 0 70 64" xmlns="http://www.w3.org/2000/svg"><title>Group 5</title><g id="Page-1" fill="none" fill-rule="evenodd"><g id="Главная" transform="translate(-373 -788)" fill-rule="nonzero"><g id="Group-11" transform="translate(54 749)"><g id="Group-5" transform="translate(319 39)"><path d="M63.847 26.305a6.37 6.37 0 0 0-2.266.347 6.332 6.332 0 0 0-4.931-3.875 6.384 6.384 0 0 0-2.944.288 6.29 6.29 0 0 0-4.629-3.824 6.362 6.362 0 0 0-3.68.398l-.353-13.517A6.29 6.29 0 0 0 39.71.054a6.14 6.14 0 0 0-4.786 1.405 6.179 6.179 0 0 0-2.176 4.501l-.876 31.98a3.485 3.485 0 0 1-.912-.82l-2.466-4.237a9.873 9.873 0 0 0-9.868-4.784 4.269 4.269 0 0 0-3.226 2.27 4.294 4.294 0 0 0 .002 3.954l9.464 18.315a9.584 9.584 0 0 0 3.68 3.854l.213.103 4.732 1.971.14.052a2.89 2.89 0 0 1 1.825 1.8l.515 1.41a1.84 1.84 0 0 0 2.34 1.145 1.848 1.848 0 0 0 1.141-2.347l-.493-1.433a6.59 6.59 0 0 0-4.099-4.09l-4.555-1.897a5.898 5.898 0 0 1-2.208-2.303l-9.413-18.286a.592.592 0 0 1 .442-.856 6.19 6.19 0 0 1 6.123 2.99l2.524 4.333c.036.064.075.126.118.185 1.604 2.133 4.415 3.499 6.719 1.986.497-.33.804-.88.824-1.477l.957-33.663a2.483 2.483 0 0 1 .88-1.844 2.467 2.467 0 0 1 1.96-.555 2.574 2.574 0 0 1 2.135 2.51l.47 17.68a1.839 1.839 0 1 0 3.555.613 2.648 2.648 0 0 1 3.003-1.661 2.774 2.774 0 0 1 2.134 2.798v.487a1.845 1.845 0 0 0 1.196 1.732c.72.27 1.532.062 2.035-.521a2.63 2.63 0 0 1 2.399-.96 2.759 2.759 0 0 1 2.267 2.798v.472a1.845 1.845 0 0 0 1.196 1.732c.72.27 1.531.062 2.034-.52a2.602 2.602 0 0 1 2.09-.924 2.795 2.795 0 0 1 2.569 2.88v14.542c0 4.43-2.826 7.804-4.04 9.051a7.445 7.445 0 0 0-1.7 2.739l-.53 1.476a1.855 1.855 0 0 0 .33 1.821 1.842 1.842 0 0 0 3.143-.573l.53-1.476c.186-.519.482-.99.869-1.38C66.813 57.081 70 52.977 70 47.403V32.868c.028-3.486-2.682-6.377-6.153-6.563z" id="Shape-Copy" fill="#FFF"/><path d="M27.541 9.946a3.555 3.555 0 0 0-1.009-2.492l-2.86-2.975a3.396 3.396 0 0 0-4.885 0l-7.323 7.535-2.708-2.775a3.396 3.396 0 0 0-4.885 0l-2.86 2.93a3.603 3.603 0 0 0 0 5.006l7.985 8.182a3.396 3.396 0 0 0 4.885 0l12.651-12.912a3.563 3.563 0 0 0 1.009-2.5zM11.464 22.627l-7.76-7.958 2.613-2.678 3.869 3.957c.34.35.803.546 1.285.546.482 0 .944-.196 1.285-.546l8.47-8.68 2.613 2.678-12.375 12.681z" id="Shape-Copy-2" fill="#63B65A"/></g></g></g></g></svg>