<svg width="36" height="36" viewBox="0 0 36 36" xmlns="http://www.w3.org/2000/svg"><title>Group 7 Copy</title><g id="Page-1" fill="none" fill-rule="evenodd"><g id="Главная" transform="translate(-519 -1269)"><g id="Group-7-Copy" transform="translate(519 1269)"><path d="M18 0C8.1 0 0 8.1 0 18s8.1 18 18 18 18-8.1 18-18S27.9 0 18 0zm0 34.2C9.06 34.2 1.8 26.94 1.8 18S9.06 1.8 18 1.8 34.2 9.06 34.2 18 26.94 34.2 18 34.2zm0-19.38c-1.74 0-3.18 1.44-3.18 3.18 0 1.74 1.44 3.18 3.18 3.18 1.74 0 3.18-1.44 3.18-3.18 0-1.74-1.44-3.18-3.18-3.18zm0 4.56c-.78 0-1.38-.6-1.38-1.38 0-.78.6-1.38 1.38-1.38.78 0 1.38.6 1.38 1.38 0 .78-.6 1.38-1.38 1.38zM26.58 21c-.12.36-.48.6-.84.6-.12 0-.18 0-.3-.06l-3.72-1.32c.3-.48.54-1.08.6-1.68l3.72 1.32c.48.18.72.66.54 1.14z" id="Shape" fill="#FFF" fill-rule="nonzero"/><path d="M15.5 4.666c-.063-.477.319-.954.828-1.014.51-.06 1.019.298 1.082.775l1.274 9.005h-.382c-.51 0-1.083.12-1.528.239L15.5 4.666z" id="Path" fill="#63B65A"/></g></g></g></svg>