<svg width="36" height="36" viewBox="0 0 36 36" xmlns="http://www.w3.org/2000/svg"><title>Group 5 Copy</title><g id="Page-1" fill="none" fill-rule="evenodd"><g id="Главная" transform="translate(-970 -1270)" fill-rule="nonzero"><g id="Group-5-Copy" transform="translate(970 1270)"><path d="M18 0C8.075 0 0 8.075 0 18s8.075 18 18 18 18-8.075 18-18S27.925 0 18 0zm0 34.2C9.068 34.2 1.8 26.933 1.8 18S9.068 1.8 18 1.8c8.932 0 16.2 7.267 16.2 16.2S26.932 34.2 18 34.2z" id="Shape" fill="#FFF"/><path d="M23.994 10.824l-8.886 3.81a.906.906 0 0 0-.472.472l-3.81 8.889a.897.897 0 0 0 1.18 1.18l8.886-3.81a.906.906 0 0 0 .472-.472l3.81-8.889a.897.897 0 0 0-1.18-1.18zm-4.14 9.031l-6.493 2.784 2.783-6.495 6.493-2.784-2.783 6.495z" id="Shape" fill="#63B65A"/><path d="M8.883 17.299h-3.74a.935.935 0 0 0 0 1.87h3.74a.935.935 0 0 0 0-1.87zm9.351-7.481a.935.935 0 0 0 .935-.935v-3.74a.935.935 0 0 0-1.87 0v3.74c0 .516.419.935.935.935zm7.948 8.416c0 .516.419.935.935.935h3.74a.935.935 0 0 0 0-1.87h-3.74a.935.935 0 0 0-.935.935zm-7.948 7.948a.935.935 0 0 0-.935.935v3.74a.935.935 0 0 0 1.87 0v-3.74a.935.935 0 0 0-.935-.935z" id="Shape" fill="#FFF"/></g></g></g></svg>