<svg width="71" height="63" viewBox="0 0 71 63" xmlns="http://www.w3.org/2000/svg"><title>Group 16</title><g id="Page-1" fill="none" fill-rule="evenodd"><g id="Главная" transform="translate(-1274 -788)" fill-rule="nonzero"><g id="Group-11" transform="translate(54 749)"><g id="Group-16" transform="translate(1220 39)"><path d="M68.261 7.308h-5.405V1.842A1.835 1.835 0 0 0 62.331.54 1.803 1.803 0 0 0 61.045 0H49.772A20.868 20.868 0 0 0 35.5 5.679 20.868 20.868 0 0 0 21.227 0H9.954c-1 0-1.81.818-1.81 1.827v5.481H2.738C1.24 7.308.019 8.523 0 10.034v43.369c0 .732.289 1.435.802 1.953.514.518 1.21.81 1.937.81H20.72c3.075.006 6 1.335 8.042 3.653l.254.27c.327.342.681.658 1.057.944.153.11.305.219.442.307.335.222.683.422 1.044.599l.18.088a7.43 7.43 0 0 0 1.34.49 8.665 8.665 0 0 0 1.87.322l.55.013a8.973 8.973 0 0 0 1.783-.182c.232-.044.42-.095.529-.132.302-.075.6-.168.891-.278h.08l.456-.197.174-.08a9.13 9.13 0 0 0 1.116-.643l.376-.263a9.46 9.46 0 0 0 1.174-1.053l.058-.058.145-.168a10.53 10.53 0 0 1 7.97-3.589h18.01a2.73 2.73 0 0 0 1.952-.824A2.775 2.775 0 0 0 71 53.403V10.034c-.02-1.511-1.24-2.726-2.739-2.726zM11.766 3.654h9.461a17.27 17.27 0 0 1 12.462 5.343v4.67c0 1.009.81 1.827 1.81 1.827a1.82 1.82 0 0 0 1.812-1.827V9.019a17.265 17.265 0 0 1 12.461-5.365h9.462V44.26h-9.462a20.846 20.846 0 0 0-12.461 4.151v-7.053a1.82 1.82 0 0 0-1.811-1.827c-1 0-1.811.818-1.811 1.827v7.053a20.846 20.846 0 0 0-12.462-4.151h-9.461V3.654zm27.66 53.834c-.223.225-.466.43-.724.614l-.217.153c-.218.148-.445.28-.681.395l-.123.059-.29.124c-.178.066-.36.122-.544.168l-.311.073c-.34.075-.688.117-1.036.124h-.312a5.31 5.31 0 0 1-.724-.095c-.152 0-.275-.066-.42-.11a4.319 4.319 0 0 1-.45-.138l-.311-.14-.138-.065a5.551 5.551 0 0 1-.637-.365l-.247-.176a5.58 5.58 0 0 1-.652-.584l-.137-.147a14.355 14.355 0 0 0-10.752-4.867H3.622V10.963h4.521v35.153c0 1.01.811 1.827 1.811 1.827h11.273a17.278 17.278 0 0 1 12.918 5.847 1.804 1.804 0 0 0 2.702 0 17.278 17.278 0 0 1 12.918-5.847h11.28c1 0 1.811-.818 1.811-1.827V10.963h4.521v41.585H50.28a14.139 14.139 0 0 0-10.73 4.838l-.122.102z" id="Shape" fill="#FFF"/><path d="M30.88 35.078a3.348 3.348 0 0 0 2.387 1.004c.895 0 1.753-.361 2.386-1.004L47.897 22.64a3.456 3.456 0 0 0 .988-2.424c0-.91-.355-1.782-.988-2.425l-2.776-2.82a3.348 3.348 0 0 0-2.386-1.004c-.896 0-1.754.362-2.387 1.005l-7.085 7.197-2.611-2.653a3.348 3.348 0 0 0-2.387-1.004c-.895 0-1.753.361-2.386 1.004l-2.776 2.82a3.456 3.456 0 0 0-.988 2.424c0 .91.355 1.782.988 2.424l7.777 7.894zm-2.61-12.851l3.73 3.79a1.813 1.813 0 0 0 2.526 0l8.205-8.342 2.504 2.544-11.972 12.162-7.491-7.61 2.497-2.544z" id="Shape" fill="#63B65A"/></g></g></g></g></svg>