<svg width="70" height="62" viewBox="0 0 70 62" xmlns="http://www.w3.org/2000/svg"><title>Group 15</title><g id="Page-1" fill="none" fill-rule="evenodd"><g id="Главная" transform="translate(-825 -791)"><g id="Group-11" transform="translate(54 749)"><g id="Group-15" transform="translate(771 42)"><path d="M20.421 55.462a10.64 10.64 0 0 1 7.93 3.563l.25.256c.322.335.67.645 1.042.926.15.107.293.214.428.3.323.214.66.407 1.008.577l.2.092a7.241 7.241 0 0 0 1.321.478c.171.05.4.114.671.164a8.88 8.88 0 0 0 1.172.15h.55a8.9 8.9 0 0 0 1.757-.179c.229-.043.421-.093.521-.128.3-.075.597-.168.886-.278h.064l.443-.192.179-.086c.379-.18.744-.387 1.093-.62l.378-.263a9.02 9.02 0 0 0 1.115-1.005l.235-.257a10.433 10.433 0 0 1 7.857-3.498h2.915c.986 0 1.785-.798 1.785-1.781 0-.984-.799-1.782-1.785-1.782h-2.879a14 14 0 0 0-10.578 4.746l-.065.071-.057.057c-.22.222-.46.425-.714.606l-.214.15a5.397 5.397 0 0 1-.715.384l-.114.057-.279.121c-.175.065-.354.12-.535.164l-.307.071c-.346.07-.698.106-1.05.107h-.315a5.176 5.176 0 0 1-.714-.092c-.15 0-.271-.065-.421-.107a4.294 4.294 0 0 1-.436-.136l-.322-.135-.128-.064a5.368 5.368 0 0 1-.622-.356l-.185-.186a5.56 5.56 0 0 1-.643-.57l-.136-.142a14.216 14.216 0 0 0-10.586-4.724H3.571V11.379H8.03v33.545c0 .984.8 1.781 1.785 1.781h11.107a17.112 17.112 0 0 1 12.736 5.7 1.788 1.788 0 0 0 3.028-.628c.2-.605.061-1.27-.364-1.744a20.687 20.687 0 0 0-15.4-6.926h-9.32V3.584h9.32A17.106 17.106 0 0 1 33.2 8.792v4.069c0 .984.8 1.781 1.786 1.781s1.785-.797 1.785-1.781V8.785A17.106 17.106 0 0 1 49.05 3.577h9.329v14.792c0 .983.8 1.78 1.785 1.78.987 0 1.786-.797 1.786-1.78v-6.99h4.479v30.695c0 .984.8 1.781 1.785 1.781.987 0 1.786-.797 1.786-1.781V10.51c0-.715-.284-1.4-.79-1.905a2.703 2.703 0 0 0-1.91-.789h-5.35V1.781C61.95.798 61.15 0 60.164 0H49.057A20.7 20.7 0 0 0 35 5.536 20.7 20.7 0 0 0 20.921.021H9.814c-.978 0-1.774.785-1.785 1.76v6.014H2.7c-.72 0-1.41.287-1.917.796A2.69 2.69 0 0 0 0 10.51v42.266a2.697 2.697 0 0 0 2.7 2.693l17.721-.007z" id="Shape-Copy-3" fill="#FFF" fill-rule="nonzero"/><path d="M58.07 39.63l10.488 10.482a4.93 4.93 0 0 1-6.973 6.967L51.103 46.596A16.163 16.163 0 0 1 32.275 20.8a16.16 16.16 0 0 1 20.956-1.625 16.163 16.163 0 0 1 4.838 20.456zm-23.243 1.488a12.48 12.48 0 0 0 8.886 3.681 12.568 12.568 0 1 0-10.448-19.55 12.568 12.568 0 0 0 1.562 15.869zm31.186 13.416a1.33 1.33 0 0 0 0-1.884l-9.95-9.98c-.287.339-.582.67-.898.986a16.7 16.7 0 0 1-.985.899l9.95 9.979a1.366 1.366 0 0 0 1.883 0z" id="Combined-Shape-Copy" fill="#63B65A"/></g></g></g></g></svg>