<?xml version="1.0" encoding="UTF-8" standalone="no"?><svg width="160" height="152" viewBox="0 0 160 152" xmlns="http://www.w3.org/2000/svg" xmlns:xlink="http://www.w3.org/1999/xlink"><svg width="10" height="10" viewBox="0 0 10 10" id="L1VzZXJzL2tvbnN0YW50aW5zdXNhbnNraWovcHJvamVjdHMvZG9icm8vZmEtZnJvbnQvc3JjL21vZHVsZXMvZG9jcy9zcHJpdGUtZGVsZXRlLnN2Zw==" x="115" y="134" xmlns="http://www.w3.org/2000/svg"><path d="M5 3.114L2.643.757A1.333 1.333 0 0 0 .757 2.643L3.114 5 .757 7.357a1.333 1.333 0 1 0 1.886 1.886L5 6.886l2.357 2.357a1.333 1.333 0 1 0 1.886-1.886L6.886 5l2.357-2.357A1.333 1.333 0 1 0 7.357.757L5 3.114z" fill="#E94C36" fill-rule="evenodd"/></svg><svg width="49" height="49" viewBox="0 0 49 49" id="L1VzZXJzL2tvbnN0YW50aW5zdXNhbnNraWovcHJvamVjdHMvZG9icm8vZmEtZnJvbnQvc3JjL21vZHVsZXMvZG9jcy9zcHJpdGUtdXBsb2FkLnN2Zw==" y="52" xmlns="http://www.w3.org/2000/svg"><g fill-rule="nonzero" fill="#A5B4BE"><path d="M16.874 18.252h15.25v1.694h-15.25zM16.874 25.77h15.25v1.694h-15.25zM16.874 22.011h15.25v1.694h-15.25z"/><path d="M24.5 0C10.968 0 0 10.97 0 24.5S10.969 49 24.5 49C38.03 49 49 38.03 49 24.5S38.03 0 24.5 0zm5.829 10.546l5.148 4.682h-5.148v-4.682zm-2.436 24.501v3.407H16.5a2.976 2.976 0 0 1-2.977-2.977V13.522a2.977 2.977 0 0 1 2.977-2.976h12.559v5.953h6.418v13.028H31.72v.002H16.874v1.694H31.72v2.064H16.874v1.695h11.02v.065zm12.027 2.68h-3.826v3.827h-2.68v-3.826h-3.826v-2.68h3.826V31.22h2.68v3.827h3.826v2.68z"/></g></svg><svg width="24" height="20" viewBox="0 0 24 20" id="L1VzZXJzL2tvbnN0YW50aW5zdXNhbnNraWovcHJvamVjdHMvZG9icm8vZmEtZnJvbnQvc3JjL21vZHVsZXMvbGFzdC9zcHJpdGUtY2hlY2suc3Zn" x="58" y="101" xmlns="http://www.w3.org/2000/svg"><path d="M24 4.375L19.8 0 9 11.25l-4.8-5L0 10.625 9 20z" fill-rule="nonzero" fill="#4CAF50"/></svg><svg width="19" height="29" viewBox="0 0 19 29" id="L1VzZXJzL2tvbnN0YW50aW5zdXNhbnNraWovcHJvamVjdHMvZG9icm8vZmEtZnJvbnQvc3JjL21vZHVsZXMvbGFzdC9zcHJpdGUtYXJyb3ctbGVmdC5zdmc=" x="39" y="101" xmlns="http://www.w3.org/2000/svg"><path d="M14.458 29L19 24.445 9.084 14.5 19 4.555 14.458 0 0 14.5z" fill-rule="nonzero" fill="#A5B6C1"/></svg><svg width="19" height="29" viewBox="0 0 19 29" id="L1VzZXJzL2tvbnN0YW50aW5zdXNhbnNraWovcHJvamVjdHMvZG9icm8vZmEtZnJvbnQvc3JjL21vZHVsZXMvbGFzdC9zcHJpdGUtYXJyb3ctcmlnaHQuc3Zn" x="20" y="101" xmlns="http://www.w3.org/2000/svg"><path d="M4.542 0L0 4.555 9.916 14.5 0 24.445 4.542 29 19 14.5z" fill-rule="nonzero" fill="#A5B6C1"/></svg><svg width="38" height="43" viewBox="0 0 38 43" id="L1VzZXJzL2tvbnN0YW50aW5zdXNhbnNraWovcHJvamVjdHMvZG9icm8vZmEtZnJvbnQvc3JjL21vZHVsZXMvbGFzdC9zcHJpdGUtZmxpcC5zdmc=" x="49" y="52" xmlns="http://www.w3.org/2000/svg"><g fill="none" fill-rule="evenodd"><path d="M28.33 1.375H8.015c-3.07 0-5.582 2.4-5.582 5.335v30.53c0 2.935 2.512 5.336 5.582 5.336H28.33c3.07 0 5.583-2.4 5.583-5.335V6.71c0-2.934-2.512-5.335-5.583-5.335" fill="#F0F0F1"/><path d="M0 19.57v4.767c0 .52.412.943.92.943s.92-.422.92-.943V19.57a.931.931 0 0 0-.92-.943.931.931 0 0 0-.92.943zM34.488 19.57v4.767c0 .52.412.943.92.943s.92-.422.92-.943V19.57a.931.931 0 0 0-.92-.943.931.931 0 0 0-.92.943z" fill="#F0F0F0"/><path d="M8.792.084c-3.04 0-5.528 2.393-5.528 5.317v30.425c0 2.924 2.488 5.317 5.528 5.317h20.116c3.04 0 5.528-2.393 5.528-5.317V5.4c0-2.924-2.488-5.317-5.528-5.317H8.792z" fill="#227EBA"/><path fill="#FEFEFE" d="M3.219 21.288h31.269v-.887H3.218z"/><path d="M1.38 17.297a.931.931 0 0 0-.92.942v4.768c0 .52.412.942.92.942.507 0 .92-.422.92-.942v-4.768a.931.931 0 0 0-.92-.942M36.327 17.297a.931.931 0 0 0-.92.942v4.768c0 .52.412.942.92.942s.92-.422.92-.942v-4.768a.931.931 0 0 0-.92-.942" fill="#C1C1C1"/></g></svg><svg width="17" height="17" viewBox="0 0 17 17" id="L1VzZXJzL2tvbnN0YW50aW5zdXNhbnNraWovcHJvamVjdHMvZG9icm8vZmEtZnJvbnQvc3JjL21vZHVsZXMvcG9wdXAvc3ByaXRlLWNsb3NlLnN2Zw==" x="143" y="52" xmlns="http://www.w3.org/2000/svg"><path d="M0 15.524L1.476 17 8.5 9.976 15.524 17 17 15.524 9.976 8.5 17 1.476 15.524 0 8.5 7.024 1.476 0 0 1.476 7.024 8.5z" fill-rule="nonzero" fill="#638BA2" opacity=".484"/></svg><svg width="11" height="14" viewBox="0 0 11 14" id="L1VzZXJzL2tvbnN0YW50aW5zdXNhbnNraWovcHJvamVjdHMvZG9icm8vZmEtZnJvbnQvc3JjL2ltZy9zcHJpdGUtY2FiaW5ldC11cmFsc2liLnN2Zw==" x="143" y="69" xmlns="http://www.w3.org/2000/svg"><g fill="#FDDB31" fill-rule="nonzero"><circle cx="5.5" cy="3.091" r="3.091"/><path d="M10.832 13.036V10.3c0-2.88-3.144-2.934-3.144-2.934H3.312S.168 7.401.168 10.3v2.736h10.664z"/></g></svg><svg width="18" height="18" viewBox="0 0 18 18" id="L1VzZXJzL2tvbnN0YW50aW5zdXNhbnNraWovcHJvamVjdHMvZG9icm8vZmEtZnJvbnQvc3JjL2ltZy9zcHJpdGUtY2FiaW5ldC5zdmc=" x="18" y="134" xmlns="http://www.w3.org/2000/svg"><path d="M8.75 0a8.75 8.75 0 1 0 0 17.5 8.75 8.75 0 0 0 0-17.5zM6.668 5.163a2.083 2.083 0 1 1 4.165 0v1.493a2.083 2.083 0 0 1-4.165 0V5.163zm7.124 8.298s-2.125 2.28-5.002 2.28-5.082-2.28-5.082-2.28v-2.334s2.098-1.235 5.115-1.235c3.016 0 4.97 1.235 4.97 1.235v2.334z" fill-rule="nonzero" fill="#FFF" opacity=".8"/></svg><svg width="18" height="18" viewBox="0 0 18 18" id="L1VzZXJzL2tvbnN0YW50aW5zdXNhbnNraWovcHJvamVjdHMvZG9icm8vZmEtZnJvbnQvc3JjL2ltZy9zcHJpdGUtY2hlY2tib3gtY2hlY2tlZC5zdmc=" x="36" y="134" xmlns="http://www.w3.org/2000/svg"><path d="M16 0H2C.9 0 0 .9 0 2v14c0 1.1.9 2 2 2h14c1.1 0 2-.9 2-2V2c0-1.1-.9-2-2-2zM7 14L2 9.192l1.4-1.346L7 11.308 14.6 4 16 5.346 7 14z" fill="#7F7979" fill-rule="evenodd"/></svg><svg width="18" height="18" viewBox="0 0 18 18" id="L1VzZXJzL2tvbnN0YW50aW5zdXNhbnNraWovcHJvamVjdHMvZG9icm8vZmEtZnJvbnQvc3JjL2ltZy9zcHJpdGUtY2hlY2tib3guc3Zn" y="134" xmlns="http://www.w3.org/2000/svg"><path d="M16 0H2C.9 0 0 .9 0 2v14c0 1.1.9 2 2 2h14c1.1 0 2-.9 2-2V2c0-1.1-.9-2-2-2z" fill="#7F7979" fill-rule="evenodd"/></svg><svg width="17" height="17" viewBox="0 0 17 17" id="L1VzZXJzL2tvbnN0YW50aW5zdXNhbnNraWovcHJvamVjdHMvZG9icm8vZmEtZnJvbnQvc3JjL2ltZy9zcHJpdGUtY2xvc2Uuc3Zn" x="71" y="134" xmlns="http://www.w3.org/2000/svg"><path d="M0 15.524L1.476 17 8.5 9.976 15.524 17 17 15.524 9.976 8.5 17 1.476 15.524 0 8.5 7.024 1.476 0 0 1.476 7.024 8.5z" fill-rule="nonzero" fill="#fff"/></svg><svg width="20" height="33" viewBox="0 0 20 33" id="L1VzZXJzL2tvbnN0YW50aW5zdXNhbnNraWovcHJvamVjdHMvZG9icm8vZmEtZnJvbnQvc3JjL2ltZy9zcHJpdGUtYXJyb3ctbGVmdC5zdmc=" x="123" y="52" xmlns="http://www.w3.org/2000/svg"><path d="M3.15 18.834L16.85 32.5l2.65-2.646L5.802 16.187 18.875 3.145 16.225.5.5 16.187z" fill-rule="nonzero" fill="#000"/></svg><svg width="20" height="33" viewBox="0 0 20 33" id="L1VzZXJzL2tvbnN0YW50aW5zdXNhbnNraWovcHJvamVjdHMvZG9icm8vZmEtZnJvbnQvc3JjL2ltZy9zcHJpdGUtYXJyb3ctcmlnaHQuc3Zn" y="101" xmlns="http://www.w3.org/2000/svg"><path d="M16.85 14.166L3.15.5.5 3.146l13.698 13.667L1.125 29.855l2.65 2.645L19.5 16.813z" fill-rule="nonzero" fill="#000"/></svg><svg width="160" height="52" viewBox="0 0 161 52" id="L1VzZXJzL2tvbnN0YW50aW5zdXNhbnNraWovcHJvamVjdHMvZG9icm8vZmEtZnJvbnQvc3JjL2ltZy9zcHJpdGUtbG9nby5zdmc=" xmlns="http://www.w3.org/2000/svg"><g fill="none" fill-rule="evenodd"><path d="M75.549 33.71c2.348 0 3.982.536 4.901 1.609.92 1.073 1.379 3.046 1.379 5.92s-.46 4.848-1.379 5.92c-.92 1.073-2.553 1.61-4.901 1.61s-3.978-.537-4.89-1.61c-.913-1.072-1.369-3.046-1.369-5.92s.456-4.847 1.368-5.92c.913-1.073 2.543-1.609 4.89-1.609zm0 2.587c-1.103 0-1.857.343-2.26 1.03-.403.687-.604 1.991-.604 3.912 0 1.921.201 3.225.604 3.912.403.687 1.157 1.03 2.26 1.03 1.103 0 1.856-.343 2.26-1.03.403-.687.604-1.991.604-3.912 0-1.92-.201-3.225-.605-3.912-.403-.687-1.156-1.03-2.26-1.03zM96.924 51.67l-.254-3.176H86.125V33.984h3.225V46.18h4.88V33.984h3.246V46.18h1.74v5.49h-2.292zm15.817-5.679l.127 2.356c-1.315.14-3.578.21-6.79.21-.975 0-1.753-.263-2.333-.789-.58-.525-.87-1.237-.87-2.134v-8.791c0-.898.294-1.61.88-2.135.588-.526 1.362-.789 2.324-.789 3.21 0 5.474.07 6.79.21l-.128 2.377h-5.644c-.353 0-.608.084-.764.253-.155.168-.233.441-.233.82v2.208h5.835v2.313H106.1V44.9c0 .392.078.673.233.84.156.169.41.253.764.253h5.644zm15.944-12.008v14.51h-3.246v-6.477h-5.156v6.478h-3.225V33.984h3.225v5.552h5.156v-5.552h3.246zm11.425 6.898v.084c.268.042.516.087.742.136.227.05.442.13.647.242l.541.295c.156.084.315.235.478.452.162.217.297.389.403.515.106.126.233.358.382.694.148.337.265.6.35.789.085.19.208.522.371.999a98.96 98.96 0 0 1 .796 2.418c.141.435.247.765.318.989h-3.373c-.793-2.566-1.33-4.136-1.613-4.711-.438-.883-.99-1.41-1.655-1.577a3.283 3.283 0 0 0-.87-.106h-1.04c.114.52.17.982.17 1.388v5.006h-3.225V33.984h3.225v4.1c0 .547-.056 1.122-.17 1.725h.998c1.004 0 1.729-.378 2.175-1.136.445-.757.993-2.25 1.644-4.48.028-.097.05-.167.064-.21h3.288c-.792 2.468-1.294 3.933-1.506 4.396-.495 1.094-1.118 1.816-1.867 2.166a4.92 4.92 0 0 1-1.273.337zm16.644 3.806h-5.029l-1.06 3.807h-3.31l4.222-13.67c.056-.253.19-.456.403-.61.212-.154.453-.231.721-.231h3.056c.608 0 .983.28 1.124.84l4.222 13.67h-3.288l-1.061-3.806zm-.7-2.481l-1.231-4.438c-.17-.701-.269-1.157-.297-1.367h-.573a29.477 29.477 0 0 1-.318 1.367l-1.23 4.438h3.649zM69.645 22.33l-.113-.763c.61-.15 1.331-.224 2.161-.224 1.162 0 1.975.299 2.439.897.464.598.696 1.634.696 3.107 0 1.473-.232 2.509-.696 3.107-.464.598-1.277.897-2.439.897-.875 0-1.618-.086-2.23-.258l.103-.751c.573.082 1.282.123 2.127.123.777 0 1.32-.217 1.63-.65.309-.434.467-1.208.475-2.322h-3.35v-.774h3.338c-.045-.928-.224-1.574-.537-1.94-.313-.367-.832-.55-1.556-.55-.792 0-1.475.033-2.048.1zm14.551 2.826v.045c.143.015.281.045.413.09.132.045.251.091.357.14.105.049.21.129.316.241.106.112.195.21.266.292.072.082.155.213.25.392a7.668 7.668 0 0 1 .447.948c.097.243.17.432.22.567l.238.656c.109.303.194.532.254.69h-1.052l-.17-.472-.3-.824a19.804 19.804 0 0 0-.266-.679 4.009 4.009 0 0 0-.288-.6 8.25 8.25 0 0 0-.306-.437 1.314 1.314 0 0 0-.368-.36 2.161 2.161 0 0 0-.418-.184 1.65 1.65 0 0 0-.52-.079h-.85c.046.285.068.557.068.82v2.814h-.984v-7.739h.984V23.9c0 .299-.022.594-.067.886h.848c.257 0 .49-.06.702-.18a2.34 2.34 0 0 0 .52-.386c.136-.139.287-.382.453-.73a12.7 12.7 0 0 0 .362-.813c.075-.194.2-.542.373-1.043.023-.067.042-.12.057-.157h1.018c-.437 1.234-.75 2.03-.939 2.39-.4.747-.897 1.17-1.493 1.267l-.125.022zm13.94 3.197l.102.74c-.626.172-1.388.258-2.286.258-1.124 0-1.916-.299-2.376-.897-.46-.598-.69-1.634-.69-3.107 0-1.473.23-2.509.69-3.107.46-.598 1.252-.897 2.376-.897.807 0 1.517.074 2.128.224l-.102.751c-.68-.067-1.354-.1-2.026-.1-.762 0-1.288.226-1.578.678-.29.452-.436 1.27-.436 2.45 0 1.182.145 2 .436 2.452.29.452.816.678 1.578.678.875 0 1.603-.04 2.184-.123zm12.085-6.876v7.74h-.996v-6.932h-3.61v6.931h-.996v-7.739h5.602zm6.958 7.74v-7.74c.634-.067 1.531-.1 2.693-.1.943 0 1.596.17 1.958.51.362.34.543.977.543 1.912 0 .935-.176 1.572-.526 1.912-.351.34-.975.51-1.873.51a16.02 16.02 0 0 1-1.8-.1v3.095h-.995zm.996-3.848h1.674c.581-.007.98-.118 1.194-.33.215-.214.323-.627.323-1.24s-.11-1.028-.328-1.245c-.22-.217-.615-.325-1.189-.325-.814 0-1.373.003-1.674.01v3.13zm15.4 3.029l.045.762c-.694.045-1.807.068-3.338.068-.468 0-.836-.122-1.104-.365-.267-.243-.401-.57-.401-.981v-5.07c0-.411.136-.739.407-.982.272-.243.638-.364 1.098-.364 1.531 0 2.644.022 3.338.067l-.045.774h-3.135c-.234 0-.403.06-.51.18-.105.12-.158.306-.158.56v1.683h3.361v.796h-3.36v2.12c0 .262.052.453.158.572.106.12.275.18.51.18h3.134zm11.484-.045l.102.74c-.626.172-1.388.258-2.286.258-1.124 0-1.916-.299-2.376-.897-.46-.598-.69-1.634-.69-3.107 0-1.473.23-2.509.69-3.107.46-.598 1.252-.897 2.376-.897.807 0 1.517.074 2.128.224l-.102.751c-.68-.067-1.354-.1-2.026-.1-.762 0-1.288.226-1.578.678-.29.452-.436 1.27-.436 2.45 0 1.182.145 2 .436 2.452.29.452.816.678 1.578.678.875 0 1.603-.04 2.184-.123zm11.315 0l.102.74c-.626.172-1.388.258-2.286.258-1.124 0-1.916-.299-2.376-.897-.46-.598-.69-1.634-.69-3.107 0-1.473.23-2.509.69-3.107.46-.598 1.252-.897 2.376-.897.807 0 1.516.074 2.127.224l-.101.751c-.68-.067-1.354-.1-2.026-.1-.762 0-1.288.226-1.578.678-.29.452-.436 1.27-.436 2.45 0 1.182.145 2 .436 2.452.29.452.816.678 1.578.678.875 0 1.603-.04 2.184-.123z" fill="#FFF"/><path d="M28.499 28.893h-.672c-.848 0-1.535.669-1.535 1.494 0 .826.687 1.495 1.535 1.495h2.495c.954 0 1.727.753 1.727 1.681 0 .929-.773 1.682-1.727 1.682H25.62h.864c-.848.228-1.346 1.081-1.112 1.907.15.526.571.937 1.112 1.082h-.192c.954 0 1.727.753 1.727 1.682 0 .928-.773 1.681-1.727 1.681H9.02c-.954 0-1.727-.753-1.727-1.681 0-.929.773-1.682 1.727-1.682H22.07c.848 0 1.535-.669 1.535-1.495 0-.825-.687-1.494-1.535-1.494h-5.757c-.954 0-1.728-.753-1.728-1.682 0-.928.774-1.681 1.728-1.681H23.03c.847 0 1.535-.67 1.535-1.495 0-.825-.688-1.494-1.536-1.494h-8.444c-.848 0-1.535.669-1.535 1.494 0 .826.687 1.495 1.535 1.495h2.783-2.783c-.848 0-1.535-.67-1.535-1.495 0-.825.687-1.494 1.535-1.494h1.92H3.837c-.954 0-1.727-.753-1.727-1.682 0-.929.773-1.681 1.727-1.681h25.14c.955 0 1.728.752 1.728 1.681s-.773 1.682-1.727 1.682h-.48zm-2.975 9.341h.768-.768zM54.961 44.4V21.02L39.749 7.081l-13.84 12.47h-4.833L39.75 2.549l18.433 17.002v28.211H19c-.954 0-1.727-.752-1.727-1.68 0-.93.773-1.682 1.727-1.682h35.962zM14.777 19.55h13.05c.954 0 1.727.754 1.727 1.682 0 .93-.773 1.682-1.727 1.682h-13.05c-.954 0-1.727-.753-1.727-1.682 0-.928.773-1.681 1.727-1.681zM1.727 38.235h1.92c.953 0 1.727.753 1.727 1.682 0 .928-.774 1.681-1.728 1.681H1.727C.773 41.597 0 40.844 0 39.916c0-.929.773-1.682 1.727-1.682zm6.525-18.683h1.92c.953 0 1.727.753 1.727 1.681 0 .93-.774 1.682-1.728 1.682H8.252c-.954 0-1.727-.753-1.727-1.682 0-.928.773-1.681 1.727-1.681zM8.444 44.4h4.99c.954 0 1.727.752 1.727 1.681s-.773 1.682-1.727 1.682h-4.99c-.954 0-1.727-.753-1.727-1.682 0-.929.773-1.681 1.727-1.681zm25.41-19.685h5.12v4.871h-5.12v-4.871zm6.967 0h5.12v4.871h-5.12v-4.871zm-6.967 6.618h5.12v4.872h-5.12v-4.872zm6.967 0h5.12v4.872h-5.12v-4.872z" fill="#FFF" fill-rule="nonzero"/><path d="M48.674 17.205c.346.097.711.15 1.089.15h8.886c2.16 0 3.91-1.7 3.91-3.797V4.584c0-2.097-1.75-3.796-3.91-3.796h-8.886c-2.16 0-3.91 1.7-3.91 3.796v8.928L43.72 17.7l4.977-.441-.023-.053z" fill="#E94C36" fill-rule="nonzero"/><path fill="#FFF" fill-rule="nonzero" d="M52.62 13.08l-3.212-3.183 1.098-1.09 2.114 2.096 5.284-5.24 1.1 1.09z"/></g></svg><svg width="17" height="17" viewBox="0 0 17 17" id="L1VzZXJzL2tvbnN0YW50aW5zdXNhbnNraWovcHJvamVjdHMvZG9icm8vZmEtZnJvbnQvc3JjL2ltZy9zcHJpdGUtbWFyay5zdmc=" x="54" y="134" xmlns="http://www.w3.org/2000/svg"><path d="M8.5 0A8.503 8.503 0 0 0 0 8.5C0 13.192 3.808 17 8.5 17S17 13.192 17 8.5 13.192 0 8.5 0zm.85 12.75h-1.7v-5.1h1.7v5.1zm0-6.8h-1.7v-1.7h1.7v1.7z" fill-rule="nonzero" fill="#C1C1C1"/></svg><svg data-name="Слой 1" viewBox="0 0 20 16" width="20" height="16" id="L1VzZXJzL2tvbnN0YW50aW5zdXNhbnNraWovcHJvamVjdHMvZG9icm8vZmEtZnJvbnQvc3JjL2ltZy9zcHJpdGUtbWVudS5zdmc=" x="82" y="101" xmlns="http://www.w3.org/2000/svg"><path fill="#fff" d="M0 0h20v2.5H0zM0 6.75h20v2.5H0zM0 13.5h20V16H0z"/></svg><svg width="8" height="12" viewBox="0 0 8 12" id="L1VzZXJzL2tvbnN0YW50aW5zdXNhbnNraWovcHJvamVjdHMvZG9icm8vZmEtZnJvbnQvc3JjL2ltZy9zcHJpdGUtbmV4dC5zdmc=" x="88" y="134" xmlns="http://www.w3.org/2000/svg"><path d="M.6 1.4L2 0l6 6-6 6-1.4-1.4L5.2 6z" fill="#fff" fill-rule="evenodd"/></svg><svg width="36" height="36" viewBox="0 0 36 36" id="L1VzZXJzL2tvbnN0YW50aW5zdXNhbnNraWovcHJvamVjdHMvZG9icm8vZmEtZnJvbnQvc3JjL2ltZy9zcHJpdGUtc2VhcmNoLnN2Zw==" x="87" y="52" xmlns="http://www.w3.org/2000/svg"><g fill="none" fill-rule="evenodd"><rect fill="#E94C36" width="36" height="36" rx="3"/><path d="M28 26.238l-3.7-3.69c1.17-1.524 1.838-3.405 1.838-5.477 0-5-4.08-9.071-9.093-9.071C12.033 8 8 12.071 8 17.071s4.081 9.072 9.093 9.072c2.076 0 3.938-.69 5.49-1.833L26.281 28 28 26.238zm-17.494-9.167a6.577 6.577 0 0 1 6.587-6.571 6.562 6.562 0 0 1 6.587 6.571c0 3.643-2.983 6.572-6.61 6.572a6.557 6.557 0 0 1-6.564-6.572z" fill="#FFF" fill-rule="nonzero"/></g></svg><svg width="14" height="9" viewBox="0 0 14 9" id="L1VzZXJzL2tvbnN0YW50aW5zdXNhbnNraWovcHJvamVjdHMvZG9icm8vZmEtZnJvbnQvc3JjL2ltZy9zcHJpdGUtc2VsZWN0LWRyb3Bkb3duLnN2Zw==" x="102" y="101" xmlns="http://www.w3.org/2000/svg"><path d="M7.1 8.953c.55 0 1.1-.19 1.55-.616l4.65-4.405c.6-.569.8-1.469.45-2.227a2.184 2.184 0 0 0-2-1.279h-9.4c-.9 0-1.65.521-2 1.28C0 2.462.2 3.362.85 3.931L5.6 8.337c.4.426.95.616 1.5.616zM2.25 2.605s-.1-.047-.05-.142c.05-.095.1-.095.15-.095h9.35c.05 0 .1 0 .15.095.05.095 0 .142-.05.142L7.15 7.011c-.05.047-.15.047-.2 0l-4.7-4.406z" fill-rule="nonzero" fill="#000" opacity=".3"/></svg><svg width="11" height="11" viewBox="0 0 11 11" id="L1VzZXJzL2tvbnN0YW50aW5zdXNhbnNraWovcHJvamVjdHMvZG9icm8vZmEtZnJvbnQvc3JjL2ltZy9zcHJpdGUtcGx1cy5zdmc=" x="104" y="134" xmlns="http://www.w3.org/2000/svg"><path d="M4.685 4.685H0v1.63h4.685V11h1.63V6.315H11v-1.63H6.315V0h-1.63z" fill-rule="nonzero" fill="#FFF"/></svg><svg width="8" height="12" viewBox="0 0 8 12" id="L1VzZXJzL2tvbnN0YW50aW5zdXNhbnNraWovcHJvamVjdHMvZG9icm8vZmEtZnJvbnQvc3JjL2ltZy9zcHJpdGUtcHJldi5zdmc=" x="96" y="134" xmlns="http://www.w3.org/2000/svg"><path d="M7.4 1.4L6 0 0 6l6 6 1.4-1.4L2.8 6z" fill="#fff" fill-rule="evenodd"/></svg><svg width="12" height="7" viewBox="0 0 12 7" id="L1VzZXJzL2tvbnN0YW50aW5zdXNhbnNraWovcHJvamVjdHMvZG9icm8vZmEtZnJvbnQvc3JjL2ltZy9zcHJpdGUtdG9nZ2xlLnN2Zw==" x="87" y="88" xmlns="http://www.w3.org/2000/svg"><path d="M10.73.141l-4.695 4.8L1.271.247.282 1.271l5.789 5.682 5.682-5.824z" fill-rule="nonzero" fill="#000"/></svg></svg>