<svg width="109" height="63" viewBox="0 0 109 63" xmlns="http://www.w3.org/2000/svg" xmlns:xlink="http://www.w3.org/1999/xlink"><title>Page 1 Copy 2</title><defs><path id="path-1" d="M.198.17h26.62v25.44H.197z"/><path id="path-3" d="M0 .043h4.838v5.389H0z"/><path id="path-5" d="M0 62.477h108.828V.275H0z"/></defs><g id="Page-1" fill="none" fill-rule="evenodd"><g id="Главная" transform="translate(-55 -1913)"><g id="Group-9" transform="translate(0 1860)"><g id="Page-1-Copy-2" transform="translate(55 53)"><path d="M17.345 38.781l1.103 1.07a3.537 3.537 0 0 0-.588.867 2.24 2.24 0 0 0-.229.976c0 1.256.674 2.246 2.028 2.984 1.113.59 2.354.888 3.734.888 1.471 0 2.787-.332 3.945-1 1.401-.8 2.1-1.885 2.1-3.261 0-1.8-1.375-3.074-4.125-3.837a542.533 542.533 0 0 1-7.718-1.953c-2.773-1.134-4.164-3.058-4.164-5.781 0-2.487 1.09-4.379 3.275-5.68 1.825-1.086 4.066-1.633 6.722-1.633 2.158 0 4.133.39 5.924 1.174 1.79.775 3.313 1.986 4.57 3.62l-4.055 3.545-1.212-.815c.218-.356.321-.71.321-1.062 0-1.115-.676-1.953-2.03-2.525-1.062-.447-2.237-.67-3.518-.67-1.799 0-3.142.294-4.019.884-.756.523-1.141 1.231-1.141 2.13 0 1.398 1.403 2.452 4.2 3.158 4.531 1.137 7.147 1.882 7.86 2.241 2.825 1.345 4.235 3.49 4.235 6.424 0 2.72-1.185 4.838-3.56 6.353-2.04 1.304-4.517 1.955-7.429 1.955-2.753 0-5.004-.524-6.763-1.563-1.611-.946-3.177-2.604-4.695-4.973l5.229-3.516zm31.128-4.469c1.54 0 2.769-.283 3.7-.85 1.11-.686 1.67-1.756 1.67-3.196 0-1.492-.586-2.606-1.745-3.336-.996-.614-2.276-.924-3.842-.924h-4.23v8.306h4.447zm9.92 11.004c.332.52.654.907.961 1.152.31.248.723.426 1.246.515v1.313h-6.263l-6.506-10.932h-3.804v6.746c0 .97.074 1.657.227 2.057.157.406.6.673 1.337.816v1.313h-7.968v-1.313c.688-.118 1.136-.436 1.348-.956.143-.355.22-.993.22-1.917V27.143c0-.974-.064-1.612-.183-1.916-.19-.5-.653-.82-1.385-.96v-1.313H50.39c2.305 0 4.213.556 5.731 1.664 1.705 1.255 2.561 2.986 2.561 5.187 0 1.727-.53 3.213-1.583 4.47-1.056 1.255-2.441 2.047-4.145 2.38l5.44 8.661zm22.662-6.779c0-.973-.063-1.61-.18-1.92-.192-.493-.648-.813-1.39-.954v-1.319h7.79v1.32c-.616.114-.997.388-1.15.815-.158.424-.237 1.112-.237 2.058v6.389c0 .616.031 1.093.095 1.436.06.344.493.553 1.292.621v1.313c-1.038.19-2.113.327-3.214.412a48.117 48.117 0 0 1-3.575.125c-3.984 0-7.348-.77-10.103-2.311-2.324-1.3-4.105-3.085-5.336-5.36-1.064-1.964-1.6-4-1.6-6.105 0-3.525 1.216-6.513 3.643-8.964 2.43-2.45 5.429-3.672 8.985-3.672 2.043 0 3.993.383 5.868 1.152 1.877.769 3.39 1.911 4.552 3.427l-3.91 4.399-1.315-.883c.449-.57.673-1.114.673-1.633 0-1.068-.63-1.894-1.883-2.487-.995-.473-2.111-.708-3.344-.708-2.447 0-4.434.922-5.979 2.768-1.45 1.752-2.168 3.879-2.168 6.388 0 3.123 1.069 5.73 3.202 7.812 2.13 2.08 4.765 3.121 7.893 3.121h1.39v-7.24z" id="Fill-1" fill="#FFF"/><path id="Fill-3" fill="#FFF" d="M0 37.035v25.442h26.62V54.51H8.44V37.035z"/><path id="Fill-5" fill="#FFF" d="M0 34.217V8.777h26.62v7.966H8.44v17.474z"/><path id="Fill-7" fill="#FFF" d="M99.392 34.218V8.777H72.773v7.965H90.95v17.476z"/><g id="Group-11" transform="translate(72.575 36.866)"><mask id="mask-2" fill="#fff"><use xlink:href="#path-1"/></mask><path id="Fill-9" fill="#FFF" mask="url(#mask-2)" d="M26.817.17v25.44H.198v-7.966h18.178V.17z"/></g><g id="Group-14" transform="translate(0 .24)"><mask id="mask-4" fill="#fff"><use xlink:href="#path-3"/></mask><path d="M3.996 1.812c-.028-.062-.058-.135-.095-.209a1.827 1.827 0 0 0-.145-.238 1.82 1.82 0 0 0-.498-.49c-.215-.145-.494-.22-.834-.22-.457 0-.844.165-1.161.49C.946 1.474.79 1.997.79 2.72c0 .756.156 1.299.48 1.622.315.327.704.488 1.154.488.398 0 .708-.093.926-.275a1.842 1.842 0 0 0 .629-.998c.032-.126.052-.23.063-.314h-1.39V2.63H4.83c0 .035.007.073.007.117v.122c0 .135-.011.285-.027.45a2.548 2.548 0 0 1-.78 1.612c-.341.335-.875.5-1.6.5-.892 0-1.503-.246-1.853-.743a3.23 3.23 0 0 1-.572-1.645c0-.047 0-.1-.004-.15L0 2.741c0-.046 0-.1.002-.149.004-.05.004-.1.004-.152.04-.601.231-1.15.572-1.648.35-.498.96-.75 1.853-.75.118 0 .277.012.484.033A2.234 2.234 0 0 1 4.22.72c.206.207.37.5.484.872l-.707.22z" id="Fill-12" fill="#FFF" mask="url(#mask-4)"/></g><path d="M7.28 3.358v2.21h-.736V.402H8.09l.314.002c.11.003.22.012.337.022.34.032.652.142.935.335.286.188.426.563.426 1.123 0 .324-.089.61-.268.85-.182.245-.509.42-.994.522l1.479 2.312h-.842l-1.424-2.21H7.28zm0-2.343v1.734h.715c.418 0 .746-.068.974-.201.23-.133.343-.36.343-.693 0-.379-.133-.614-.397-.705a2.738 2.738 0 0 0-.907-.135H7.28z" id="Fill-15" fill="#FFF"/><path d="M11.644 2.982c0-.306.028-.576.08-.802.05-.227.103-.413.161-.564.046-.11.09-.199.127-.272a1.76 1.76 0 0 1 .096-.146.884.884 0 0 1 .083-.112.78.78 0 0 1 .093-.115c.15-.17.368-.33.654-.473.277-.144.657-.214 1.14-.214.133 0 .292.013.453.026.171.024.334.062.504.12.182.065.355.16.528.278.177.121.338.284.478.49.115.18.215.367.282.572.068.205.116.411.147.624.017.1.024.194.027.295a3.132 3.132 0 0 1 0 .589 3.58 3.58 0 0 1-.174.919 2.38 2.38 0 0 1-.282.57c-.14.209-.301.372-.478.492a2.245 2.245 0 0 1-.528.276c-.17.057-.333.09-.504.11a3.98 3.98 0 0 1-.454.028c-.472 0-.846-.063-1.125-.2a2.168 2.168 0 0 1-.647-.455c-.038-.042-.078-.086-.108-.128a.608.608 0 0 1-.09-.124 1.321 1.321 0 0 1-.095-.143 3.666 3.666 0 0 1-.127-.276 3.676 3.676 0 0 1-.162-.56 3.618 3.618 0 0 1-.079-.805m.79-.02c0 .678.147 1.198.437 1.561.285.366.688.548 1.198.548.477 0 .827-.128 1.062-.389.233-.258.395-.54.48-.844.041-.157.068-.311.085-.457.01-.144.025-.283.025-.4 0-.118-.014-.248-.025-.396a3.241 3.241 0 0 0-.085-.458 2.104 2.104 0 0 0-.48-.843c-.235-.257-.585-.388-1.062-.388-.072 0-.184.01-.327.03-.14.022-.286.069-.44.148-.221.112-.418.31-.6.6-.179.283-.267.711-.267 1.288" id="Fill-17" fill="#FFF"/><path d="M18.213.402h.738v3.331c0 .058 0 .113.007.163.015.295.1.563.243.81.15.244.49.366 1.02.366.571 0 .93-.142 1.066-.426.137-.282.203-.642.203-1.074V.402h.735v3.18c0 .083 0 .167-.004.255 0 .083-.007.17-.018.263a2.129 2.129 0 0 1-.448 1.083c-.26.33-.771.49-1.533.49-.767 0-1.277-.16-1.537-.49a2.128 2.128 0 0 1-.451-1.083c-.007-.093-.014-.18-.014-.263-.007-.088-.007-.172-.007-.256V.402z" id="Fill-19" fill="#FFF"/><path d="M24.972 3.683V5.57h-.732V.403h1.829c.632 0 1.1.146 1.412.435.31.297.467.68.467 1.16 0 .49-.106.853-.317 1.085a1.649 1.649 0 0 1-.702.477 2.293 2.293 0 0 1-.527.112c-.166.01-.293.011-.379.011h-1.051zm0-.609h.984c.057 0 .14-.004.238-.007.1-.008.204-.029.313-.061.164-.05.313-.145.451-.29.132-.139.2-.366.2-.677 0-.303-.072-.53-.221-.67a1.138 1.138 0 0 0-.485-.291 1.393 1.393 0 0 0-.33-.056 5.368 5.368 0 0 0-.26-.007h-.89v2.06z" id="Fill-21" fill="#FFF"/><path d="M34.723 2.982a3.723 3.723 0 0 1 .237-1.366c.05-.11.087-.199.132-.272.04-.067.072-.115.095-.146a1.157 1.157 0 0 1 .173-.227c.154-.17.368-.33.654-.473.284-.144.657-.214 1.142-.214.138 0 .288.013.455.026.164.024.334.062.504.12.177.065.354.16.531.278.17.121.327.284.471.49.122.18.21.367.283.572.067.205.118.411.144.624.022.1.03.194.035.295a7.205 7.205 0 0 1 0 .588 1.65 1.65 0 0 1-.035.294 3.195 3.195 0 0 1-.144.626 2.407 2.407 0 0 1-.283.57c-.144.209-.3.372-.47.492a2.482 2.482 0 0 1-.532.276c-.17.057-.34.09-.504.11a4.052 4.052 0 0 1-.455.028c-.474 0-.85-.063-1.124-.2a2.168 2.168 0 0 1-.651-.455 1.498 1.498 0 0 1-.11-.128c-.03-.04-.062-.082-.084-.124a1.318 1.318 0 0 1-.095-.143c-.045-.072-.082-.167-.132-.276a3.69 3.69 0 0 1-.236-1.365m.79-.02c0 .678.142 1.198.432 1.561.289.366.685.548 1.199.548.476 0 .83-.128 1.061-.389.24-.258.396-.54.485-.844.041-.157.066-.311.081-.457.017-.144.028-.283.028-.4 0-.118-.01-.248-.028-.396a3.003 3.003 0 0 0-.081-.458 2.074 2.074 0 0 0-.485-.843c-.23-.257-.585-.388-1.061-.388-.076 0-.184.01-.324.03-.139.022-.29.069-.442.148-.222.112-.42.31-.601.6-.176.283-.264.711-.264 1.288" id="Fill-23" fill="#FFF"/><path id="Fill-25" fill="#FFF" d="M42.051 1.015v1.49h1.947v.612h-1.947v2.45h-.738V.403h3.036v.612z"/><path d="M55.267.912l-.338.492a4.013 4.013 0 0 0-.316-.212c-.1-.059-.2-.108-.305-.147a1.615 1.615 0 0 0-.398-.118 2.884 2.884 0 0 0-.438-.03c-.496 0-.878.194-1.15.577-.263.387-.4.866-.4 1.435 0 .736.16 1.265.48 1.591.317.32.667.506 1.042.553.048.008.09.012.128.012.042.005.08.005.12.005.218 0 .42-.05.59-.152.178-.099.33-.213.463-.334.03-.037.062-.066.096-.1a1.78 1.78 0 0 0 .088-.09l.498.413a2.775 2.775 0 0 1-.284.308 2.43 2.43 0 0 1-.313.229 2.023 2.023 0 0 1-.742.281 3.348 3.348 0 0 1-.446.048c-.793 0-1.409-.263-1.849-.786-.438-.53-.66-1.183-.66-1.967 0-.756.18-1.331.54-1.735.365-.405.771-.671 1.206-.807.12-.025.232-.053.344-.068.113-.018.221-.026.334-.026.33 0 .642.049.945.152.298.102.56.258.765.476" id="Fill-27" fill="#FFF"/><path d="M56.751 2.982c0-.306.023-.576.072-.802.053-.227.107-.413.163-.564.044-.11.088-.199.133-.272l.087-.146c.03-.038.053-.074.083-.112.026-.037.063-.077.095-.115a2.2 2.2 0 0 1 .653-.473c.284-.144.66-.214 1.145-.214.135 0 .286.013.453.026.171.024.333.062.504.12.18.065.352.16.528.278.177.121.333.284.478.49.118.18.214.367.277.572.07.205.119.411.149.624a3.644 3.644 0 0 1 .04.588c0 .103 0 .2-.008.296-.007.098-.014.198-.032.293-.03.214-.08.422-.15.626a2.148 2.148 0 0 1-.276.57 1.858 1.858 0 0 1-.478.492 2.325 2.325 0 0 1-.528.276 2.38 2.38 0 0 1-.504.11 4.052 4.052 0 0 1-.453.028c-.47 0-.848-.063-1.128-.2a2.154 2.154 0 0 1-.646-.455.907.907 0 0 1-.11-.128 1.876 1.876 0 0 1-.092-.124c-.019-.026-.047-.077-.087-.143a1.89 1.89 0 0 1-.133-.276 4.576 4.576 0 0 1-.163-.56 3.852 3.852 0 0 1-.072-.805m.786-.02c0 .678.144 1.198.432 1.561.29.366.69.548 1.202.548.475 0 .831-.128 1.063-.389.236-.258.395-.54.484-.844.034-.157.065-.311.081-.457.014-.144.021-.283.021-.4 0-.118-.007-.248-.02-.396a4.389 4.389 0 0 0-.082-.458 2.113 2.113 0 0 0-.484-.843c-.232-.257-.588-.388-1.063-.388-.075 0-.182.01-.326.03a1.437 1.437 0 0 0-.443.148c-.218.112-.415.31-.593.6-.18.283-.272.711-.272 1.288" id="Fill-29" fill="#FFF"/><path id="Fill-31" fill="#FFF" d="M65.403 4.591l-1.356-3.274v4.25h-.738V.402h1.022l1.324 3.193L66.97.402h1.01v5.165h-.738v-4.25L65.894 4.59z"/><path d="M70.722 3.683V5.57h-.74V.403h1.837c.626 0 1.095.146 1.413.435.306.297.465.68.465 1.16 0 .49-.108.853-.323 1.085a1.606 1.606 0 0 1-.698.477c-.183.062-.36.099-.528.112a6.04 6.04 0 0 1-.382.011h-1.044zm0-.609h.976c.065 0 .145-.004.242-.007.103-.008.205-.029.314-.061.163-.05.31-.145.449-.29.133-.139.202-.366.202-.677 0-.303-.076-.53-.223-.67a1.114 1.114 0 0 0-.482-.291 1.452 1.452 0 0 0-.327-.056 5.404 5.404 0 0 0-.262-.007h-.89v2.06z" id="Fill-33" fill="#FFF"/><path d="M76.3 4.163l-.527 1.405h-.818L77.189.403h.66l2.231 5.165h-.815l-.528-1.405H76.3zm2.144-.613l-.929-2.253-.927 2.253h1.856z" id="Fill-35" fill="#FFF"/><path id="Fill-37" fill="#FFF" d="M82.381 1.657v3.91h-.736V.401h.736l2.351 3.837V.4h.744v5.166h-.744z"/><mask id="mask-6" fill="#fff"><use xlink:href="#path-5"/></mask><path id="Fill-39" fill="#FFF" mask="url(#mask-6)" d="M87.435 5.568h.74V.402h-.74z"/><path id="Fill-41" fill="#FFF" mask="url(#mask-6)" d="M93.178 1.015h-2.305v1.482h1.952v.614h-1.952v1.84h2.604v.616h-3.34V.403h3.041z"/><path d="M98.984 1.723l-.652.186a1.173 1.173 0 0 0-.25-.505 1.461 1.461 0 0 0-.366-.285 1.32 1.32 0 0 0-.401-.142 1.663 1.663 0 0 0-.237-.028.288.288 0 0 0-.069-.01h-.136c-.01.01-.027.01-.037.01h-.03c-.273.011-.482.08-.615.198a.67.67 0 0 0-.238.377c-.006.025-.006.05-.009.071-.003.019-.003.042-.003.061 0 .2.08.367.244.496.164.125.34.232.535.307.096.036.183.067.265.094a3.5 3.5 0 0 1 .235.08c.08.022.163.05.253.077.084.03.166.062.251.09.308.12.59.283.851.496.26.213.388.528.388.948 0 .385-.105.673-.306.871a1.784 1.784 0 0 1-.662.42 2.566 2.566 0 0 1-.592.123 4.95 4.95 0 0 1-.353.015h-.009c-.539 0-.962-.1-1.264-.305-.297-.204-.524-.43-.663-.679a1.977 1.977 0 0 1-.15-.366 2.013 2.013 0 0 1-.086-.319l.701-.216c.095.358.236.626.428.806.199.18.398.304.605.367.073.016.144.033.216.043.075.01.149.016.213.016.045 0 .086-.005.128-.005a1.562 1.562 0 0 0 .733-.214c.183-.109.279-.299.279-.563a.661.661 0 0 0-.24-.54 2.234 2.234 0 0 0-.538-.303c-.047-.019-.09-.037-.143-.05-.05-.011-.091-.028-.143-.045-.03-.009-.071-.018-.108-.033-.032-.01-.068-.023-.106-.03a5.272 5.272 0 0 1-1.184-.552c-.358-.227-.538-.586-.538-1.071 0-.35.134-.654.417-.91.276-.257.678-.394 1.192-.42.026-.004.05-.009.08-.009h.166c.01.005.022.01.033.01h.045c.592.025 1.04.184 1.332.477.293.29.47.611.538.961" id="Fill-42" fill="#FFF" mask="url(#mask-6)"/><path d="M105.492 11.427h.31c.364 0 .658-.12.658-.413 0-.26-.19-.431-.605-.431a1.5 1.5 0 0 0-.363.035v.81zm-.018 1.587h-.657v-2.828c.26-.035.623-.086 1.09-.086.534 0 .776.086.968.224.172.12.292.328.292.603 0 .345-.258.569-.586.673v.035c.276.087.414.31.5.69.086.43.156.586.208.69h-.692c-.087-.104-.137-.346-.224-.69-.052-.294-.225-.432-.587-.432h-.312v1.121zm-1.745-1.465c0 1.259.95 2.26 2.212 2.26 1.226.016 2.16-1.001 2.16-2.244 0-1.259-.934-2.276-2.194-2.276-1.228 0-2.178 1.017-2.178 2.26zm5.099 0c0 1.587-1.279 2.845-2.904 2.845-1.624 0-2.922-1.258-2.922-2.845 0-1.587 1.298-2.83 2.939-2.83 1.608 0 2.887 1.243 2.887 2.83z" id="Fill-43" fill="#FFF" mask="url(#mask-6)"/></g></g></g></g></svg>