<svg width="74" height="43" viewBox="0 0 74 43" xmlns="http://www.w3.org/2000/svg" xmlns:xlink="http://www.w3.org/1999/xlink"><title>Page 1</title><defs><path id="path-1" d="M.135.115h18.071v17.272H.135z"/><path id="path-3" d="M0 .03h3.285v3.658H0z"/><path id="path-5" d="M0 42.416h73.883V.187H0z"/></defs><g id="Page-1" fill="none" fill-rule="evenodd"><g id="Главная" transform="translate(-38 -27)"><g id="Group-12" transform="translate(-1 -26)"><g id="Page-1" transform="translate(39 53)"><path d="M11.775 26.329l.75.726a2.401 2.401 0 0 0-.4.588 1.52 1.52 0 0 0-.155.663c0 .852.458 1.525 1.376 2.026.756.4 1.599.603 2.535.603 1 0 1.892-.225 2.679-.679.95-.543 1.426-1.28 1.426-2.214 0-1.221-.934-2.087-2.801-2.605a364.57 364.57 0 0 1-5.24-1.326c-1.882-.77-2.827-2.076-2.827-3.925 0-1.688.74-2.972 2.224-3.856 1.239-.737 2.76-1.108 4.563-1.108 1.466 0 2.806.264 4.022.797 1.215.525 2.25 1.348 3.103 2.457l-2.753 2.407-.823-.553c.148-.242.218-.482.218-.721 0-.757-.459-1.326-1.378-1.715-.721-.303-1.52-.455-2.39-.455-1.22 0-2.132.2-2.727.6-.514.356-.775.837-.775 1.447 0 .949.953 1.665 2.852 2.144 3.076.772 4.852 1.278 5.336 1.521 1.918.913 2.875 2.37 2.875 4.362 0 1.845-.805 3.284-2.418 4.313-1.384.885-3.066 1.327-5.043 1.327-1.869 0-3.397-.356-4.59-1.061-1.095-.643-2.158-1.768-3.188-3.376l3.55-2.387zm21.133-3.034c1.045 0 1.88-.193 2.512-.578.753-.466 1.134-1.192 1.134-2.17 0-1.013-.398-1.769-1.185-2.264-.676-.417-1.545-.628-2.608-.628H29.89v5.64h3.018zm6.736 7.47c.225.353.443.616.652.782.21.168.49.289.846.35v.891H36.89l-4.417-7.421H29.89v4.58c0 .658.05 1.124.154 1.396.106.275.408.457.907.554v.891h-5.409v-.891c.467-.08.771-.296.915-.649.098-.241.15-.675.15-1.302V18.427c0-.661-.043-1.094-.124-1.3-.13-.34-.444-.557-.94-.653v-.89h8.667c1.565 0 2.86.377 3.89 1.13 1.158.851 1.74 2.027 1.74 3.52 0 1.173-.36 2.182-1.076 3.035-.717.852-1.657 1.39-2.814 1.616l3.694 5.88zm15.384-4.602c0-.66-.043-1.094-.122-1.304-.13-.334-.44-.552-.944-.647v-.896h5.29v.896c-.42.078-.678.264-.782.553-.107.288-.161.756-.161 1.398V30.5c0 .418.022.742.065.975.04.234.335.375.877.422v.891c-.705.13-1.435.222-2.182.28-.75.056-1.56.085-2.427.085-2.705 0-4.989-.523-6.859-1.57-1.578-.882-2.787-2.094-3.623-3.638-.722-1.333-1.085-2.715-1.085-4.145 0-2.393.824-4.421 2.473-6.085 1.649-1.663 3.685-2.493 6.099-2.493 1.387 0 2.711.26 3.984.782 1.274.522 2.302 1.297 3.09 2.326l-2.654 2.987-.893-.6c.305-.387.457-.756.457-1.108 0-.726-.428-1.286-1.279-1.689-.675-.32-1.433-.48-2.27-.48-1.66 0-3.01.625-4.058 1.879-.985 1.189-1.473 2.633-1.473 4.337 0 2.12.726 3.89 2.174 5.303 1.446 1.412 3.235 2.12 5.36 2.12h.943v-4.916z" id="Fill-1" fill="#FFF"/><path id="Fill-3" fill="#FFF" d="M0 25.143v17.273h18.072v-5.41H5.73V25.144z"/><path id="Fill-5" fill="#FFF" d="M0 23.23V5.958h18.072v5.408H5.73V23.23z"/><path id="Fill-7" fill="#FFF" d="M67.477 23.23V5.96H49.406v5.407h12.34v11.865z"/><g id="Group-11" transform="translate(49.27 25.029)"><mask id="mask-2" fill="#fff"><use xlink:href="#path-1"/></mask><path id="Fill-9" fill="#FFF" mask="url(#mask-2)" d="M18.206.115v17.272H.135v-5.408h12.34V.115z"/></g><g id="Group-14" transform="translate(0 .163)"><mask id="mask-4" fill="#fff"><use xlink:href="#path-3"/></mask><path d="M2.713 1.23c-.019-.042-.04-.092-.064-.141A1.221 1.221 0 0 0 2.55.926a1.236 1.236 0 0 0-.338-.331.991.991 0 0 0-.567-.151c-.31 0-.572.112-.788.332-.215.225-.32.58-.32 1.071 0 .514.105.882.325 1.101.214.222.478.331.783.331.27 0 .481-.062.63-.186a1.25 1.25 0 0 0 .426-.678 1.77 1.77 0 0 0 .043-.213H1.8v-.416h1.48c0 .024.005.05.005.08v.082c0 .092-.008.194-.019.305a1.73 1.73 0 0 1-.53 1.094c-.23.228-.593.34-1.086.34-.605 0-1.02-.166-1.258-.503a2.193 2.193 0 0 1-.39-1.22C0 1.93 0 1.895 0 1.862l.001-.101c.003-.034.003-.068.003-.103.027-.409.157-.78.388-1.12C.63.2 1.045.03 1.65.03c.08 0 .188.008.33.022a1.517 1.517 0 0 1 .885.439c.14.14.25.339.328.592l-.48.148z" id="Fill-12" fill="#FFF" mask="url(#mask-4)"/></g><path d="M4.942 2.28v1.5h-.5V.273h1.051l.213.001c.075.003.15.009.228.015.231.022.443.097.635.228.194.127.289.382.289.762 0 .22-.06.414-.182.577-.123.166-.345.285-.675.355L7.005 3.78h-.57l-.968-1.5h-.525zm0-1.591v1.177h.486c.284 0 .506-.046.661-.136.157-.09.233-.245.233-.47 0-.258-.09-.417-.27-.48a1.859 1.859 0 0 0-.615-.09h-.495z" id="Fill-15" fill="#FFF"/><path d="M7.905 2.024a2.666 2.666 0 0 1 .164-.927c.031-.075.06-.135.086-.184.027-.046.05-.079.065-.1a.6.6 0 0 1 .056-.076A.529.529 0 0 1 8.34.66c.103-.115.25-.224.444-.32.189-.099.447-.146.774-.146a1.837 1.837 0 0 1 .65.1c.124.043.241.107.359.188.12.082.229.192.324.333.079.121.146.249.192.387a2.46 2.46 0 0 1 .118.625 2.127 2.127 0 0 1 0 .4 2.43 2.43 0 0 1-.118.624 1.615 1.615 0 0 1-.192.386 1.212 1.212 0 0 1-.324.334 1.518 1.518 0 0 1-.358.187 1.608 1.608 0 0 1-.343.075 2.72 2.72 0 0 1-.308.02c-.32 0-.574-.044-.764-.137a1.472 1.472 0 0 1-.439-.308c-.026-.03-.053-.059-.074-.087a.413.413 0 0 1-.06-.084.897.897 0 0 1-.065-.097 2.489 2.489 0 0 1-.086-.188 2.458 2.458 0 0 1-.11-.38 2.456 2.456 0 0 1-.054-.547m.537-.013c0 .46.1.813.296 1.06.193.248.467.372.813.372.324 0 .562-.087.722-.264a1.437 1.437 0 0 0 .383-.884c.007-.098.017-.192.017-.27 0-.081-.01-.17-.017-.27a2.2 2.2 0 0 0-.057-.31 1.429 1.429 0 0 0-.326-.574C10.113.697 9.875.61 9.55.61c-.049 0-.124.007-.221.02a.965.965 0 0 0-.3.1c-.15.076-.283.21-.406.407-.122.193-.182.483-.182.875" id="Fill-17" fill="#FFF"/><path d="M12.365.273h.501v2.262c0 .039 0 .076.005.11.01.2.067.382.165.55.101.165.332.248.693.248.387 0 .63-.096.723-.289.093-.192.137-.435.137-.729V.273h.5V2.43c0 .057 0 .114-.003.174 0 .056-.005.115-.012.179-.03.265-.13.51-.305.735-.176.223-.523.333-1.04.333-.521 0-.867-.11-1.044-.333a1.445 1.445 0 0 1-.306-.735c-.005-.064-.01-.123-.01-.18-.004-.059-.004-.116-.004-.173V.273z" id="Fill-19" fill="#FFF"/><path d="M16.953 2.5v1.28h-.497V.274h1.242c.43 0 .747.1.959.296.21.202.317.461.317.787 0 .332-.072.58-.215.737a1.12 1.12 0 0 1-.477.324 1.557 1.557 0 0 1-.357.076c-.114.007-.2.007-.258.007h-.714zm0-.413h.668c.04 0 .095-.003.162-.005.068-.005.138-.02.213-.041a.702.702 0 0 0 .306-.198c.09-.093.136-.248.136-.459 0-.205-.05-.359-.15-.454a.773.773 0 0 0-.33-.198.946.946 0 0 0-.223-.038 3.644 3.644 0 0 0-.178-.005h-.604v1.398z" id="Fill-21" fill="#FFF"/><path d="M23.573 2.024a2.528 2.528 0 0 1 .161-.927c.034-.075.06-.135.09-.184.027-.046.049-.079.064-.1a.786.786 0 0 1 .118-.154 1.47 1.47 0 0 1 .444-.32c.192-.099.446-.146.775-.146.094 0 .195.008.31.018.11.016.226.042.341.08.12.045.24.11.361.19.115.082.222.192.32.333.082.121.142.249.191.387.046.14.081.28.098.424.016.068.02.132.024.2a5.194 5.194 0 0 1 0 .4 1.12 1.12 0 0 1-.024.2 2.17 2.17 0 0 1-.098.424 1.61 1.61 0 0 1-.192.387 1.307 1.307 0 0 1-.319.334c-.12.081-.24.144-.361.187a1.67 1.67 0 0 1-.342.075c-.114.013-.215.02-.309.02-.322 0-.577-.044-.763-.137a1.472 1.472 0 0 1-.442-.308 1.017 1.017 0 0 1-.075-.087c-.02-.028-.042-.056-.057-.084a.895.895 0 0 1-.064-.097c-.03-.05-.056-.114-.09-.188a2.505 2.505 0 0 1-.16-.927m.536-.013c0 .46.097.813.294 1.06.196.248.465.372.814.372.323 0 .563-.087.72-.264a1.416 1.416 0 0 0 .384-.884c.012-.098.02-.192.02-.27 0-.081-.008-.17-.02-.27a1.408 1.408 0 0 0-.384-.884c-.157-.174-.397-.262-.72-.262-.052 0-.125.007-.22.02a.979.979 0 0 0-.3.1c-.15.076-.285.21-.408.407-.12.193-.18.483-.18.875" id="Fill-23" fill="#FFF"/><path id="Fill-25" fill="#FFF" d="M28.548.689V1.7h1.322v.416h-1.322V3.78h-.5V.273h2.06V.69z"/><path d="M37.52.62l-.229.333a2.724 2.724 0 0 0-.214-.144 1.336 1.336 0 0 0-.207-.1 1.096 1.096 0 0 0-.27-.08 1.958 1.958 0 0 0-.298-.02.903.903 0 0 0-.78.391c-.18.263-.272.589-.272.975 0 .5.108.858.326 1.08.215.218.452.344.707.375a.56.56 0 0 0 .087.009.715.715 0 0 0 .082.003.769.769 0 0 0 .4-.103c.12-.067.225-.145.314-.227.02-.025.043-.044.066-.068l.059-.06.338.28c-.063.077-.128.15-.193.209-.069.06-.139.11-.212.155a1.374 1.374 0 0 1-.504.191 2.273 2.273 0 0 1-.303.032c-.538 0-.956-.178-1.255-.533-.297-.36-.448-.804-.448-1.336 0-.513.122-.903.367-1.178.248-.274.523-.455.819-.547.08-.018.157-.036.233-.047a1.41 1.41 0 0 1 .227-.017c.224 0 .436.033.642.103.202.07.38.175.518.323" id="Fill-27" fill="#FFF"/><path d="M38.528 2.024c0-.208.016-.39.049-.544.036-.154.073-.28.11-.383.03-.075.06-.135.091-.184.027-.046.046-.079.06-.1.02-.026.035-.05.056-.076.017-.025.042-.052.064-.078.104-.115.252-.224.443-.32.193-.099.449-.146.777-.146.093 0 .195.008.308.018.116.016.226.042.342.08.123.045.24.11.358.19.12.082.227.192.326.333.08.121.144.249.187.387.048.14.081.28.101.424a2.648 2.648 0 0 1 .027.399c0 .07 0 .136-.005.201-.004.067-.01.135-.022.2a2.2 2.2 0 0 1-.101.424 1.458 1.458 0 0 1-.187.387 1.266 1.266 0 0 1-.326.334 1.536 1.536 0 0 1-.358.187 1.616 1.616 0 0 1-.342.075c-.113.013-.215.02-.308.02-.319 0-.575-.044-.765-.137a1.462 1.462 0 0 1-.439-.308.616.616 0 0 1-.074-.087 1.273 1.273 0 0 1-.063-.084c-.013-.018-.032-.053-.059-.097a1.39 1.39 0 0 1-.09-.188 3.107 3.107 0 0 1-.111-.38 2.615 2.615 0 0 1-.049-.547m.534-.013c0 .46.097.813.293 1.06.197.248.47.372.816.372.322 0 .565-.087.722-.264a1.44 1.44 0 0 0 .328-.573 3.05 3.05 0 0 0 .056-.31c.009-.099.014-.193.014-.272a2.9 2.9 0 0 0-.014-.269 2.98 2.98 0 0 0-.056-.31c-.06-.206-.168-.4-.328-.574-.157-.174-.4-.262-.722-.262-.05 0-.124.007-.221.02a.976.976 0 0 0-.3.1c-.149.076-.283.21-.403.407-.122.193-.185.483-.185.875" id="Fill-29" fill="#FFF"/><path id="Fill-31" fill="#FFF" d="M44.402 3.117l-.92-2.223v2.885h-.501V.273h.693l.899 2.168.893-2.168h.686v3.506h-.501V.894l-.916 2.223z"/><path d="M48.013 2.5v1.28h-.502V.274h1.247c.425 0 .743.1.96.296.207.202.315.461.315.787 0 .332-.074.58-.22.737-.14.159-.3.267-.474.324a1.496 1.496 0 0 1-.358.076 4.428 4.428 0 0 1-.259.007h-.709zm0-.413h.663c.044 0 .098-.003.164-.005a.994.994 0 0 0 .214-.041.706.706 0 0 0 .304-.198c.09-.093.137-.248.137-.459 0-.205-.051-.359-.151-.454a.756.756 0 0 0-.328-.198.986.986 0 0 0-.222-.038 3.669 3.669 0 0 0-.177-.005h-.604v1.398z" id="Fill-33" fill="#FFF"/><path d="M51.8 2.826l-.358.954h-.555L52.404.273h.448l1.514 3.507h-.553l-.359-.954H51.8zm1.456-.416L52.625.88l-.63 1.53h1.26z" id="Fill-35" fill="#FFF"/><path id="Fill-37" fill="#FFF" d="M55.928 1.125V3.78h-.5V.272h.5l1.597 2.605V.272h.505V3.78h-.505z"/><mask id="mask-6" fill="#fff"><use xlink:href="#path-5"/></mask><path id="Fill-39" fill="#FFF" mask="url(#mask-6)" d="M59.36 3.78h.502V.273h-.502z"/><path id="Fill-41" fill="#FFF" mask="url(#mask-6)" d="M63.259.689h-1.565v1.006h1.325v.417h-1.325v1.25h1.768v.418h-2.268V.273h2.065z"/><path d="M67.2 1.17l-.443.126a.796.796 0 0 0-.17-.343.992.992 0 0 0-.247-.193.896.896 0 0 0-.273-.097 1.13 1.13 0 0 0-.161-.019.198.198 0 0 0-.047-.007h-.092c-.007.007-.018.007-.025.007h-.021c-.185.008-.327.054-.417.135a.455.455 0 0 0-.161.256c-.005.017-.005.034-.006.048-.003.013-.003.029-.003.042 0 .136.054.249.166.336.111.085.23.158.363.208.065.025.124.046.18.064.057.018.112.035.16.054l.171.053c.057.02.113.042.171.061.209.081.4.192.578.336.176.145.263.36.263.644 0 .261-.071.457-.208.592a1.21 1.21 0 0 1-.45.285 1.742 1.742 0 0 1-.401.083 3.36 3.36 0 0 1-.24.01h-.006c-.366 0-.653-.068-.858-.207a1.427 1.427 0 0 1-.45-.46 1.342 1.342 0 0 1-.102-.25 1.367 1.367 0 0 1-.058-.216l.476-.146c.064.243.16.425.29.547.135.122.27.206.41.25.05.01.099.021.148.029.05.006.1.01.144.01.03 0 .059-.003.087-.003a1.06 1.06 0 0 0 .498-.145c.124-.074.189-.203.189-.383a.449.449 0 0 0-.163-.366 1.517 1.517 0 0 0-.365-.206c-.032-.013-.061-.025-.097-.034-.035-.008-.062-.019-.097-.03-.021-.007-.049-.013-.074-.023-.021-.007-.046-.016-.072-.02a3.58 3.58 0 0 1-.803-.375c-.244-.154-.366-.398-.366-.727a.8.8 0 0 1 .284-.618c.187-.175.46-.268.809-.285.017-.003.033-.006.054-.006h.113a.056.056 0 0 0 .022.006h.03c.402.017.706.126.905.324.199.198.319.415.365.653" id="Fill-42" fill="#FFF" mask="url(#mask-6)"/><path d="M71.618 7.758h.211c.247 0 .446-.082.446-.28 0-.177-.129-.294-.41-.294-.118 0-.2.012-.247.024v.55zm-.012 1.077h-.446v-1.92c.176-.023.423-.058.74-.058.363 0 .527.058.658.152a.484.484 0 0 1 .198.41c0 .234-.176.386-.398.456V7.9c.187.059.281.21.34.468.058.293.105.398.14.468h-.47c-.059-.07-.093-.234-.152-.468-.035-.199-.153-.293-.398-.293h-.212v.761zm-1.184-.995c0 .855.645 1.534 1.501 1.534.833.012 1.467-.679 1.467-1.522 0-.855-.634-1.546-1.49-1.546-.833 0-1.478.691-1.478 1.534zm3.46 0c0 1.078-.867 1.932-1.97 1.932s-1.984-.854-1.984-1.932c0-1.077.881-1.92 1.995-1.92 1.092 0 1.96.843 1.96 1.92z" id="Fill-43" fill="#FFF" mask="url(#mask-6)"/></g></g></g></g></svg>